<svg width="437" height="441" viewBox="0 0 437 441" fill="none" xmlns="http://www.w3.org/2000/svg">
<path fill-rule="evenodd" clip-rule="evenodd" d="M181.5 47C181.5 27.4566 197.555 11.5 217.5 11.5C237.445 11.5 253.5 27.4566 253.5 47C253.5 66.5434 237.445 82.5 217.5 82.5C197.555 82.5 181.5 66.5434 181.5 47ZM217.5 0.5C191.606 0.5 170.5 21.2561 170.5 47C170.5 72.7439 191.606 93.5 217.5 93.5C243.394 93.5 264.5 72.7439 264.5 47C264.5 21.2561 243.394 0.5 217.5 0.5ZM198.5 47C198.5 36.8891 206.899 28.5 217.5 28.5C228.101 28.5 236.5 36.8891 236.5 47C236.5 57.1109 228.101 65.5 217.5 65.5C206.899 65.5 198.5 57.1109 198.5 47ZM217.5 17.5C201.039 17.5 187.5 30.6012 187.5 47C187.5 63.3988 201.039 76.5 217.5 76.5C233.961 76.5 247.5 63.3988 247.5 47C247.5 30.6012 233.961 17.5 217.5 17.5ZM295.607 92.5426C298.225 85.9958 302.441 76.5332 306.57 69.3373C308.268 66.3787 309.814 64.0491 311.1 62.4873C311.73 63.5596 312.403 64.8912 313.084 66.4362C314.624 69.931 316.07 74.2153 317.093 78.424C318.132 82.6966 318.648 86.5434 318.543 89.2564C318.509 90.1405 318.413 90.7486 318.321 91.1342C317.59 91.4573 316.673 91.9873 315.902 92.8564C315.15 93.7023 314.469 94.9505 314.392 96.5279C314.318 98.033 314.825 99.2209 315.275 99.9647C316.06 101.261 317.189 102.056 317.685 102.394C318.335 102.836 319.064 103.243 319.741 103.6C320.864 104.192 322.012 104.748 323.236 105.34C325.365 106.369 327.723 107.51 330.577 109.146C339.135 114.054 347.738 121.18 349.572 132.388L349.827 133.944L350.867 135.129C357.493 142.675 375.4 154.093 397.994 145.991C402.135 155.233 405.708 172.425 396.51 189.839C394.309 190.853 391.082 192.052 387.477 192.821C382.956 193.786 378.401 193.954 374.676 192.762C373.824 192.489 373.044 192.263 372.361 192.106C371.858 191.99 370.802 191.757 369.682 191.847C369.253 191.881 367.561 192.032 366.106 193.431C364.09 195.369 364.221 197.854 364.646 199.202C364.993 200.3 365.593 201.039 365.819 201.309C366.121 201.668 366.426 201.959 366.656 202.165C368.117 203.476 371.169 205.36 373.898 207.015C375.087 207.736 376.303 208.464 377.505 209.184C379.299 210.257 381.063 211.313 382.661 212.301L382.57 212.35C379.056 214.251 375.146 215.5 373 215.5C371.07 215.5 369.268 216.033 367.698 217.13C366.264 218.132 365.313 219.407 364.675 220.385C364.18 221.144 363.679 222.041 363.257 222.797L363.257 222.798C363.157 222.977 363.061 223.148 362.971 223.307C362.445 224.241 361.908 225.152 361.25 226.088C358.841 229.517 354 234.484 340.537 238.198L336.235 239.385L336.51 243.84C336.999 251.741 337.136 263.567 336.011 273.386C335.442 278.346 334.591 282.418 333.493 285.151C332.915 286.59 332.457 287.23 332.223 287.49C332.073 287.466 331.878 287.423 331.634 287.351C331.026 287.172 330.237 286.847 329.264 286.327C327.304 285.279 324.97 283.639 322.383 281.501C317.346 277.339 311.879 271.73 307.128 266.287C305.084 262.766 302.133 257.869 299.62 254.115C298.355 252.226 297.015 250.343 295.883 249.107C295.584 248.781 295.209 248.398 294.778 248.042C294.453 247.773 293.622 247.111 292.428 246.754C291.771 246.558 290.715 246.368 289.473 246.653C288.12 246.964 287.01 247.734 286.251 248.709C285.002 250.314 285 252.06 285 252.5C285 253.852 285.452 254.992 285.657 255.485C285.932 256.147 286.281 256.817 286.639 257.447C287.362 258.718 288.344 260.209 289.482 261.808C290.921 263.831 292.7 266.155 294.707 268.621C287.186 273.518 274.319 278.57 260.768 274.774C259.762 269.978 258.272 263.943 256.475 258.607C255.369 255.325 254.068 252.065 252.577 249.476C251.835 248.186 250.931 246.859 249.828 245.754C248.765 244.687 247.103 243.413 244.836 243.064C243.924 242.924 242.448 242.889 240.926 243.699C239.3 244.563 238.437 245.952 238.04 247.103C237.408 248.937 237.749 250.738 237.887 251.437C238.245 253.263 239.104 255.669 239.937 257.972C240.071 258.342 240.208 258.719 240.348 259.104C242.091 263.907 244.26 269.882 245.618 276.323C247.092 283.306 247.478 290.27 245.63 296.324C243.863 302.114 239.919 307.54 231.665 311.52C231.597 311.548 231.215 311.68 230.465 311.492C229.669 311.293 228.321 310.69 226.611 308.982C223.103 305.481 218.548 297.794 214.851 282.229L214.303 279.921L212.248 278.736C192.742 267.485 169.795 247.379 160.827 221.84C156.391 209.207 155.34 195.178 159.85 179.965C164.339 164.821 174.44 148.167 192.839 130.42L193.337 130.129C212.088 119.182 251.796 96 290.5 96H294.224L295.607 92.5426ZM386.949 215.171C386.947 215.17 386.923 215.149 386.882 215.109C386.931 215.151 386.951 215.171 386.949 215.171ZM332.067 287.641C332.057 287.647 332.052 287.65 332.052 287.651C332.052 287.651 332.053 287.65 332.056 287.648C332.058 287.647 332.062 287.645 332.067 287.641ZM257.84 285.381C276.064 290.498 292.732 283.34 301.947 276.993C306.183 281.614 310.858 286.247 315.376 289.981C318.264 292.368 321.228 294.504 324.078 296.028C326.779 297.472 330.095 298.761 333.457 298.481C339.276 297.996 342.236 292.898 343.701 289.252C345.346 285.155 346.333 279.933 346.939 274.639C347.964 265.692 348.017 255.46 347.707 247.516C360.346 243.315 366.552 237.675 370.25 232.412C371.217 231.036 371.961 229.759 372.552 228.712C372.711 228.431 372.85 228.182 372.976 227.957C373.338 227.31 373.584 226.87 373.834 226.479C378.51 226.245 383.927 224.123 387.805 222.025C389.927 220.877 392.023 219.505 393.575 218.043C394.319 217.343 395.248 216.336 395.879 215.054C396.518 213.756 397.251 211.229 395.716 208.67C395.112 207.663 394.275 206.955 393.961 206.689C393.494 206.296 392.966 205.904 392.448 205.54C391.617 204.955 390.616 204.303 389.542 203.628C389.619 203.612 389.696 203.595 389.773 203.579C395.301 202.4 400.159 200.415 403.088 198.853L404.493 198.104L405.28 196.72C419.781 171.234 411.374 145.87 405.144 136.053L402.541 131.952L398.149 134.028C380.144 142.539 365.823 134.529 360.107 128.899C356.884 113.658 345.034 104.756 336.048 99.6038C333.419 98.0961 330.634 96.7052 328.415 95.6194C329.177 93.7085 329.46 91.6134 329.535 89.6811C329.696 85.5191 328.931 80.5534 327.782 75.826C326.617 71.0347 324.97 66.1315 323.15 62.0013C322.24 59.9359 321.254 57.9883 320.221 56.3108C319.231 54.7042 318.013 53.0368 316.553 51.8014C314.142 49.7615 311.231 49.6474 308.878 50.504C306.89 51.2274 305.282 52.6098 304.102 53.8202C301.662 56.3231 299.233 60.0221 297.03 63.8627C293.243 70.462 289.494 78.6039 286.785 85.0637C246.283 86.4409 206.296 109.813 188.266 120.351C187.734 120.662 187.222 120.962 186.729 121.249L186.165 121.578L185.695 122.029C165.989 140.913 154.503 159.299 149.303 176.838C146.827 185.191 145.801 193.274 145.956 201.028C141.103 200.038 135.256 199.36 129.115 199.525C119.959 199.771 109.61 201.911 101.004 208.261C90.5604 209.161 73.2497 217.112 68.5963 241.648L79.4037 243.698C82.1563 229.184 90.228 222.871 96.6353 220.463C96.3675 229.182 99.1996 235.581 104.335 239.674C110.409 244.515 118.274 244.903 123.352 244.106L126.045 243.684L127.339 241.286C130.382 235.653 131.683 230.387 131.002 225.561C130.304 220.603 127.626 216.901 124.289 214.322C122.94 213.278 121.462 212.399 119.915 211.662C123.005 210.962 126.208 210.607 129.41 210.521C136.204 210.338 142.589 211.385 147.071 212.582C147.841 217.016 148.986 221.321 150.448 225.485C160.306 253.556 184.445 274.913 204.713 287.065C208.546 302.142 213.512 311.45 218.839 316.768C224.553 322.47 231.185 323.883 236.326 321.484L236.354 321.471L236.382 321.457C247.346 316.189 253.453 308.375 256.151 299.535C257.576 294.867 258.008 290.057 257.84 285.381ZM369.704 202.787C369.701 202.786 369.723 202.789 369.773 202.799C369.73 202.793 369.706 202.788 369.704 202.787ZM323.875 93.3006C323.829 93.2624 323.801 93.2438 323.799 93.2443C323.798 93.2446 323.808 93.253 323.831 93.2694C323.842 93.2777 323.857 93.2881 323.875 93.3006ZM322.675 101.239C322.544 101.293 322.514 101.289 322.641 101.25L322.675 101.239ZM111.19 231.072C109.322 229.582 107.138 226.469 107.691 219.5C111.444 220.02 115.162 221.169 117.561 223.024C119.074 224.194 119.884 225.493 120.11 227.097C120.302 228.458 120.137 230.509 118.921 233.435C116.154 233.409 113.244 232.708 111.19 231.072ZM248.664 249.231C248.648 249.138 248.646 249.096 248.648 249.099C248.651 249.101 248.659 249.148 248.664 249.231ZM242.008 253.49C241.99 253.476 241.981 253.468 241.981 253.467C241.981 253.466 241.99 253.474 242.008 253.49ZM295.816 251.267C295.778 251.175 295.791 251.187 295.823 251.284L295.816 251.267ZM217.079 136.057C222.451 132.427 239.593 124.259 261.69 123.497L261.31 112.503C237.007 113.341 217.882 122.239 210.921 126.943L217.079 136.057ZM9.855 376.01V357.76H16.79C17.7633 358.49 18.5907 359.658 19.272 361.264C20.002 362.87 20.367 364.573 20.367 366.374C20.367 370.608 19.0287 373.82 16.352 376.01H9.855ZM0 349V400.1H9.855V384.624H18.688C22.5813 383.213 25.5257 380.804 27.521 377.397C29.5163 373.99 30.514 370.292 30.514 366.301C30.514 362.262 29.5407 358.733 27.594 355.716C25.696 352.699 23.0923 350.46 19.783 349H0ZM45.4556 370.462H50.9306C51.7093 371.289 52.3419 372.506 52.8286 374.112C53.3153 375.669 53.51 377.178 53.4126 378.638H42.9736C42.9736 377.178 43.1926 375.669 43.6306 374.112C44.1173 372.555 44.7256 371.338 45.4556 370.462ZM60.8586 400.1V392.435H47.0616C46.2343 391.802 45.4556 390.78 44.7256 389.369C44.0443 387.909 43.6306 386.619 43.4846 385.5H61.6616C62.0996 383.553 62.3186 381.217 62.3186 378.492C62.3186 375.767 61.7346 373.066 60.5666 370.389C59.3986 367.712 57.1843 365.182 53.9236 362.797H42.0976C36.063 367.177 33.0456 373.358 33.0456 381.339C33.0456 384.794 33.727 388.225 35.0896 391.632C36.501 394.99 38.91 397.813 42.3166 400.1H60.8586ZM67.29 400.1V362.797H74.225L76.05 366.739C77.9967 364.111 80.4544 362.797 83.423 362.797H86.27V372.579H76.999V400.1H67.29ZM109.527 362.797H93.3944C89.939 364.306 88.2114 366.836 88.2114 370.389C88.2114 370.973 88.3087 371.727 88.5034 372.652C88.6007 372.993 88.771 373.406 89.0144 373.893C89.2577 374.331 89.4524 374.696 89.5984 374.988C89.7444 375.28 90.012 375.742 90.4014 376.375C90.7907 376.959 91.326 377.738 92.0074 378.711C92.7374 379.684 93.2727 380.439 93.6134 380.974L101.424 392.435H88.0654V400.1H106.68C109.26 398.348 110.549 395.744 110.549 392.289C110.549 391.462 110.452 390.659 110.257 389.88C109.917 388.225 108.189 385.184 105.074 380.755L98.1394 370.462H109.527V362.797ZM136.745 400.1H120.831C115.964 395.574 113.531 389.393 113.531 381.558C113.531 377.616 114.066 374.185 115.137 371.265C116.256 368.345 118.008 365.522 120.393 362.797H137.475C140.006 365.717 141.733 368.564 142.658 371.338C143.583 374.063 144.045 377.47 144.045 381.558C144.045 389.393 141.612 395.574 136.745 400.1ZM126.014 392.435H131.562C133.314 389.028 134.19 385.159 134.19 380.828C134.19 376.497 133.29 373.041 131.489 370.462H126.014C124.262 372.944 123.386 376.472 123.386 381.047C123.386 385.573 124.262 389.369 126.014 392.435ZM173.215 362.797H165.477C163.579 362.797 162.143 362.992 161.17 363.381C160.245 363.77 159.247 364.452 158.177 365.425L156.863 362.797H149.271V400.1H158.98V370.462H167.156C168.421 372.506 169.054 375.84 169.054 380.463V400.1H178.763V381.193C178.763 377.105 178.373 373.698 177.595 370.973C176.816 368.248 175.356 365.522 173.215 362.797ZM202.366 383.237H194.555C193.533 384.502 193.022 386.084 193.022 387.982C193.022 389.88 193.557 391.364 194.628 392.435H202.366V383.237ZM186.671 362.797H204.775C207.695 364.549 209.617 366.569 210.542 368.856C211.466 371.095 211.929 374.161 211.929 378.054V389.004C211.929 393.043 212.026 396.742 212.221 400.1H203.899L202.585 397.472C200.687 399.224 198.01 400.1 194.555 400.1H189.956C185.819 397.375 183.751 393.457 183.751 388.347C183.751 383.188 185.868 379.125 190.102 376.156H196.964C198.862 376.156 200.638 376.74 202.293 377.908V374.258C202.293 372.36 201.465 371.095 199.811 370.462H186.671V362.797ZM227.843 400.1V349H218.207V400.1H227.843ZM246.161 400.1V349H266.966C269.351 349.876 271.468 351.409 273.317 353.599C275.166 355.789 276.091 358.441 276.091 361.556C276.091 367.055 274.29 370.9 270.689 373.09V373.382C275.166 375.864 277.405 379.757 277.405 385.062C277.405 391.145 274.315 396.158 268.134 400.1H246.161ZM256.089 370.097H263.316C265.457 368.783 266.528 366.788 266.528 364.111C266.528 361.434 265.53 359.317 263.535 357.76H256.089V370.097ZM256.089 391.632H263.608C264.484 390.999 265.263 390.002 265.944 388.639C266.674 387.276 267.039 385.914 267.039 384.551C267.039 383.188 266.747 381.947 266.163 380.828C265.579 379.709 264.849 378.881 263.973 378.346H256.089V391.632ZM287.623 400.1H295.288C297.868 400.1 300.082 399.224 301.931 397.472L303.245 400.1H310.91V362.797H301.201V392.435H294.412C292.66 390.196 291.784 386.863 291.784 382.434V362.797H282.075V381.704C282.075 385.792 282.465 389.199 283.243 391.924C284.022 394.649 285.482 397.375 287.623 400.1ZM345.407 400.1H338.034L336.72 397.472C335.65 398.445 334.628 399.127 333.654 399.516C332.73 399.905 331.318 400.1 329.42 400.1H323.069C320.928 398.056 319.225 395.379 317.959 392.07C316.743 388.761 316.134 385.062 316.134 380.974C316.134 376.837 316.743 373.333 317.959 370.462C319.225 367.591 321.001 365.036 323.288 362.797H329.566C332.146 362.797 334.19 363.478 335.698 364.841V349H345.407V400.1ZM335.698 370.462H328.69C326.89 373.528 325.989 377.3 325.989 381.777C325.989 386.206 326.865 389.758 328.617 392.435H335.698V370.462ZM379.911 396.231V362.797H372.319L371.005 365.863C369.156 363.819 366.65 362.797 363.486 362.797H358.084C355.651 365.084 353.802 367.664 352.536 370.535C351.271 373.358 350.638 377.008 350.638 381.485C350.638 387.714 352.609 393.189 356.551 397.91H361.88C365.822 397.91 368.694 397.156 370.494 395.647V399.954C370.494 401.56 369.886 402.728 368.669 403.458H356.186V411.05H372.83C375.653 409.347 377.527 407.376 378.451 405.137C379.425 402.898 379.911 399.93 379.911 396.231ZM363.121 370.462H370.202V390.537H362.756C361.248 388.006 360.493 384.794 360.493 380.901C360.493 376.959 361.369 373.479 363.121 370.462ZM402.742 370.462H397.267C396.537 371.338 395.929 372.555 395.442 374.112C395.004 375.669 394.785 377.178 394.785 378.638H405.224C405.321 377.178 405.127 375.669 404.64 374.112C404.153 372.506 403.521 371.289 402.742 370.462ZM412.67 392.435V400.1H394.128C390.721 397.813 388.312 394.99 386.901 391.632C385.538 388.225 384.857 384.794 384.857 381.339C384.857 373.358 387.874 367.177 393.909 362.797H405.735C408.996 365.182 411.21 367.712 412.378 370.389C413.546 373.066 414.13 375.767 414.13 378.492C414.13 381.217 413.911 383.553 413.473 385.5H395.296C395.442 386.619 395.856 387.909 396.537 389.369C397.267 390.78 398.046 391.802 398.873 392.435H412.67ZM420.506 370.462V383.821C420.506 387.179 420.725 390.026 421.163 392.362C421.698 395.136 423.255 397.715 425.835 400.1H436.201V392.435H431.748C430.726 391.218 430.215 389.126 430.215 386.157V370.462H436.201V362.797H430.215V352.65H420.506V362.797H415.469V370.462H420.506ZM57.376 433.468C58.384 433.468 59.16 433.252 59.704 432.82C60.248 432.372 60.52 431.724 60.52 430.876C60.52 430.172 60.328 429.58 59.944 429.1C59.576 428.62 58.968 428.252 58.12 427.996L56.176 427.42C54.96 427.052 54.064 426.5 53.488 425.764C52.912 425.012 52.624 424.092 52.624 423.004C52.624 422.172 52.784 421.42 53.104 420.748C53.44 420.076 53.968 419.54 54.688 419.14C55.424 418.74 56.384 418.54 57.568 418.54C58.288 418.54 59.032 418.628 59.8 418.804C60.568 418.964 61.344 419.228 62.128 419.596L61.456 421.396C60.688 421.06 59.992 420.82 59.368 420.676C58.76 420.516 58.176 420.436 57.616 420.436C56.704 420.436 55.992 420.628 55.48 421.012C54.984 421.38 54.736 421.996 54.736 422.86C54.736 423.484 54.904 424.012 55.24 424.444C55.576 424.86 56.176 425.204 57.04 425.476L58.984 426.052C61.416 426.772 62.632 428.324 62.632 430.708C62.632 432.084 62.216 433.204 61.384 434.068C60.552 434.916 59.216 435.34 57.376 435.34C56.624 435.34 55.824 435.252 54.976 435.076C54.144 434.884 53.28 434.588 52.384 434.188L53.032 432.412C53.88 432.796 54.64 433.068 55.312 433.228C56 433.388 56.688 433.468 57.376 433.468ZM67.7166 434.788C68.6766 435.156 69.6046 435.34 70.5006 435.34C72.1166 435.34 73.3406 434.844 74.1726 433.852C75.0206 432.86 75.4446 431.532 75.4446 429.868V428.476C75.4446 426.732 75.1006 425.38 74.4126 424.42C73.7406 423.46 72.7726 422.98 71.5086 422.98C70.8686 422.98 70.2446 423.124 69.6366 423.412C69.0286 423.7 68.3566 424.196 67.6206 424.9V423.22H65.7486V440.212H67.7166V434.788ZM69.5886 425.188C70.0846 424.948 70.5646 424.828 71.0286 424.828C71.8286 424.828 72.4206 425.124 72.8046 425.716C73.2046 426.308 73.4046 427.228 73.4046 428.476V429.868C73.4046 431.004 73.1646 431.908 72.6846 432.58C72.2046 433.236 71.4206 433.564 70.3326 433.564C69.9166 433.564 69.4926 433.524 69.0606 433.444C68.6286 433.348 68.1806 433.196 67.7166 432.988V426.652C68.4686 425.916 69.0926 425.428 69.5886 425.188ZM87.7006 434.404C86.9806 434.756 86.2606 434.996 85.5406 435.124C84.8206 435.268 84.1566 435.34 83.5486 435.34C81.8366 435.34 80.5566 434.852 79.7086 433.876C78.8766 432.9 78.4606 431.564 78.4606 429.868V428.428C78.4606 426.78 78.8766 425.46 79.7086 424.468C80.5566 423.476 81.7486 422.98 83.2846 422.98C84.1006 422.98 84.8446 423.148 85.5166 423.484C86.2046 423.804 86.7486 424.3 87.1486 424.972C87.5646 425.628 87.7726 426.476 87.7726 427.516C87.7726 428.188 87.6766 428.956 87.4846 429.82H80.4046V429.868C80.4046 431.084 80.6526 432.004 81.1486 432.628C81.6606 433.252 82.4766 433.564 83.5966 433.564C84.1086 433.564 84.6686 433.5 85.2766 433.372C85.9006 433.244 86.5086 433.044 87.1006 432.772L87.7006 434.404ZM83.2846 424.708C82.3566 424.708 81.6526 425.012 81.1726 425.62C80.7086 426.212 80.4526 427.052 80.4046 428.14H85.7806C85.8286 427.852 85.8526 427.58 85.8526 427.324C85.8526 426.428 85.5966 425.772 85.0846 425.356C84.5886 424.924 83.9886 424.708 83.2846 424.708ZM95.3063 425.164C95.9143 424.94 96.4423 424.828 96.8903 424.828C98.1703 424.828 98.8103 425.644 98.8103 427.276V435.1H100.778V426.988C100.778 425.708 100.482 424.724 99.8903 424.036C99.3143 423.332 98.4743 422.98 97.3703 422.98C96.7303 422.98 96.0583 423.116 95.3543 423.388C94.6663 423.66 93.8983 424.156 93.0503 424.876V423.22H91.1783V435.1H93.1463V426.532C93.9943 425.844 94.7143 425.388 95.3063 425.164ZM112.113 435.1V433.444C111.377 434.148 110.705 434.644 110.097 434.932C109.505 435.204 108.889 435.34 108.249 435.34C106.985 435.34 106.009 434.86 105.321 433.9C104.649 432.94 104.313 431.596 104.313 429.868V428.476C104.313 426.796 104.729 425.46 105.561 424.468C106.409 423.476 107.633 422.98 109.233 422.98C109.697 422.98 110.161 423.028 110.625 423.124C111.089 423.22 111.553 423.356 112.017 423.532V417.34H113.985V435.1H112.113ZM106.353 429.868C106.353 431.116 106.545 432.036 106.929 432.628C107.329 433.204 107.921 433.492 108.705 433.492C109.169 433.492 109.649 433.38 110.145 433.156C110.641 432.916 111.265 432.428 112.017 431.692V425.356C111.553 425.148 111.105 425.004 110.673 424.924C110.241 424.828 109.817 424.78 109.401 424.78C108.313 424.78 107.529 425.108 107.049 425.764C106.585 426.42 106.353 427.324 106.353 428.476V429.868ZM125.396 417.34H123.428V432.22C123.428 433.1 123.636 433.82 124.052 434.38C124.468 434.94 125.204 435.22 126.26 435.22H126.812V433.42H126.428C126.012 433.42 125.732 433.316 125.588 433.108C125.46 432.884 125.396 432.556 125.396 432.124V417.34ZM138.396 434.404C137.676 434.756 136.956 434.996 136.236 435.124C135.516 435.268 134.852 435.34 134.244 435.34C132.532 435.34 131.252 434.852 130.404 433.876C129.572 432.9 129.156 431.564 129.156 429.868V428.428C129.156 426.78 129.572 425.46 130.404 424.468C131.252 423.476 132.444 422.98 133.98 422.98C134.796 422.98 135.54 423.148 136.212 423.484C136.9 423.804 137.444 424.3 137.844 424.972C138.26 425.628 138.468 426.476 138.468 427.516C138.468 428.188 138.372 428.956 138.18 429.82H131.1V429.868C131.1 431.084 131.348 432.004 131.844 432.628C132.356 433.252 133.172 433.564 134.292 433.564C134.804 433.564 135.364 433.5 135.972 433.372C136.596 433.244 137.204 433.044 137.796 432.772L138.396 434.404ZM133.98 424.708C133.052 424.708 132.348 425.012 131.868 425.62C131.404 426.212 131.148 427.052 131.1 428.14H136.476C136.524 427.852 136.548 427.58 136.548 427.324C136.548 426.428 136.292 425.772 135.78 425.356C135.284 424.924 134.684 424.708 133.98 424.708ZM147.178 431.956C147.178 433.044 146.378 433.588 144.778 433.588C144.202 433.588 143.634 433.524 143.074 433.396C142.514 433.268 141.89 433.068 141.202 432.796L140.674 434.428C141.394 434.748 142.09 434.98 142.762 435.124C143.45 435.268 144.138 435.34 144.826 435.34C145.866 435.34 146.69 435.188 147.298 434.884C147.922 434.58 148.37 434.164 148.642 433.636C148.93 433.092 149.074 432.492 149.074 431.836C149.074 430.924 148.826 430.18 148.33 429.604C147.834 429.028 147.058 428.612 146.002 428.356L144.682 428.02C143.978 427.844 143.498 427.612 143.242 427.324C142.986 427.036 142.858 426.692 142.858 426.292C142.858 425.252 143.554 424.732 144.946 424.732C145.89 424.732 146.946 424.996 148.114 425.524L148.738 423.868C148.082 423.548 147.434 423.324 146.794 423.196C146.17 423.052 145.554 422.98 144.946 422.98C144.002 422.98 143.234 423.14 142.642 423.46C142.05 423.78 141.618 424.204 141.346 424.732C141.074 425.244 140.938 425.804 140.938 426.412C140.938 427.244 141.178 427.964 141.658 428.572C142.138 429.164 142.866 429.58 143.842 429.82L145.162 430.156C145.93 430.348 146.458 430.58 146.746 430.852C147.034 431.124 147.178 431.492 147.178 431.956ZM155.114 433.588C156.714 433.588 157.514 433.044 157.514 431.956C157.514 431.492 157.37 431.124 157.082 430.852C156.794 430.58 156.266 430.348 155.498 430.156L154.178 429.82C153.202 429.58 152.474 429.164 151.994 428.572C151.514 427.964 151.274 427.244 151.274 426.412C151.274 425.804 151.41 425.244 151.682 424.732C151.954 424.204 152.386 423.78 152.978 423.46C153.57 423.14 154.338 422.98 155.282 422.98C155.89 422.98 156.506 423.052 157.13 423.196C157.77 423.324 158.418 423.548 159.074 423.868L158.45 425.524C157.282 424.996 156.226 424.732 155.282 424.732C153.89 424.732 153.194 425.252 153.194 426.292C153.194 426.692 153.322 427.036 153.578 427.324C153.834 427.612 154.314 427.844 155.018 428.02L156.338 428.356C157.394 428.612 158.17 429.028 158.666 429.604C159.162 430.18 159.41 430.924 159.41 431.836C159.41 432.492 159.266 433.092 158.978 433.636C158.706 434.164 158.258 434.58 157.634 434.884C157.026 435.188 156.202 435.34 155.162 435.34C154.474 435.34 153.786 435.268 153.098 435.124C152.426 434.98 151.73 434.748 151.01 434.428L151.538 432.796C152.226 433.068 152.85 433.268 153.41 433.396C153.97 433.524 154.538 433.588 155.114 433.588ZM163.721 433.372V432.916H161.753C161.753 433.828 161.721 434.62 161.658 435.292C161.609 435.98 161.49 436.636 161.298 437.26C161.122 437.9 160.833 438.604 160.434 439.372L161.73 440.092C162.482 438.892 163.002 437.764 163.29 436.708C163.577 435.652 163.721 434.54 163.721 433.372ZM175.293 433.588C176.893 433.588 177.693 433.044 177.693 431.956C177.693 431.492 177.549 431.124 177.261 430.852C176.973 430.58 176.445 430.348 175.677 430.156L174.357 429.82C173.381 429.58 172.653 429.164 172.173 428.572C171.693 427.964 171.453 427.244 171.453 426.412C171.453 425.804 171.589 425.244 171.861 424.732C172.133 424.204 172.565 423.78 173.157 423.46C173.749 423.14 174.517 422.98 175.461 422.98C176.069 422.98 176.685 423.052 177.309 423.196C177.949 423.324 178.597 423.548 179.253 423.868L178.629 425.524C177.461 424.996 176.405 424.732 175.461 424.732C174.069 424.732 173.373 425.252 173.373 426.292C173.373 426.692 173.501 427.036 173.757 427.324C174.013 427.612 174.493 427.844 175.197 428.02L176.517 428.356C177.573 428.612 178.349 429.028 178.845 429.604C179.341 430.18 179.589 430.924 179.589 431.836C179.589 432.492 179.445 433.092 179.157 433.636C178.885 434.164 178.437 434.58 177.813 434.884C177.205 435.188 176.381 435.34 175.341 435.34C174.653 435.34 173.965 435.268 173.277 435.124C172.605 434.98 171.909 434.748 171.189 434.428L171.717 432.796C172.405 433.068 173.029 433.268 173.589 433.396C174.149 433.524 174.717 433.588 175.293 433.588ZM189.637 434.716C190.085 435.052 190.677 435.22 191.413 435.22H191.773V433.42H191.509C191.077 433.42 190.789 433.3 190.645 433.06C190.501 432.804 190.429 432.492 190.429 432.124V426.988C190.429 426.268 190.317 425.604 190.093 424.996C189.869 424.388 189.461 423.9 188.869 423.532C188.277 423.164 187.421 422.98 186.301 422.98C185.613 422.98 184.933 423.068 184.261 423.244C183.589 423.42 182.885 423.676 182.149 424.012L182.773 425.644C184.037 425.084 185.181 424.804 186.205 424.804C186.957 424.804 187.525 424.972 187.909 425.308C188.309 425.628 188.509 426.236 188.509 427.132V428.74C187.981 428.66 187.461 428.596 186.949 428.548C186.437 428.484 185.965 428.452 185.533 428.452C184.557 428.452 183.781 428.604 183.205 428.908C182.629 429.196 182.221 429.596 181.981 430.108C181.741 430.62 181.621 431.204 181.621 431.86C181.621 432.836 181.869 433.66 182.365 434.332C182.861 435.004 183.629 435.34 184.669 435.34C185.309 435.34 185.949 435.204 186.589 434.932C187.229 434.644 187.941 434.156 188.725 433.468C188.901 433.964 189.205 434.38 189.637 434.716ZM183.949 433.156C183.693 432.82 183.565 432.38 183.565 431.836C183.565 431.228 183.725 430.772 184.045 430.468C184.365 430.164 184.893 430.012 185.629 430.012C186.461 430.012 187.421 430.1 188.509 430.276V431.788C187.709 432.54 187.037 433.044 186.493 433.3C185.949 433.54 185.469 433.66 185.053 433.66C184.573 433.66 184.205 433.492 183.949 433.156ZM202.968 423.22L198.768 435.1H196.92L192.672 423.22H194.712L196.704 429.004L197.904 432.628L199.08 429.004L201.024 423.22H202.968ZM211.822 435.124C212.542 434.996 213.262 434.756 213.982 434.404L213.382 432.772C212.79 433.044 212.182 433.244 211.558 433.372C210.95 433.5 210.39 433.564 209.878 433.564C208.758 433.564 207.942 433.252 207.43 432.628C206.934 432.004 206.686 431.084 206.686 429.868V429.82H213.766C213.958 428.956 214.054 428.188 214.054 427.516C214.054 426.476 213.846 425.628 213.43 424.972C213.03 424.3 212.486 423.804 211.798 423.484C211.126 423.148 210.382 422.98 209.566 422.98C208.03 422.98 206.838 423.476 205.99 424.468C205.158 425.46 204.742 426.78 204.742 428.428V429.868C204.742 431.564 205.158 432.9 205.99 433.876C206.838 434.852 208.118 435.34 209.83 435.34C210.438 435.34 211.102 435.268 211.822 435.124ZM207.454 425.62C207.934 425.012 208.638 424.708 209.566 424.708C210.27 424.708 210.87 424.924 211.366 425.356C211.878 425.772 212.134 426.428 212.134 427.324C212.134 427.58 212.11 427.852 212.062 428.14H206.686C206.734 427.052 206.99 426.212 207.454 425.62ZM228.278 424.828C227.83 424.828 227.326 424.948 226.766 425.188C226.206 425.412 225.502 425.86 224.654 426.532V435.1H222.686V423.22H224.558V424.876C225.406 424.172 226.158 423.684 226.814 423.412C227.47 423.124 228.118 422.98 228.758 422.98C229.51 422.98 230.134 423.156 230.63 423.508C231.126 423.844 231.494 424.332 231.734 424.972C232.614 424.22 233.398 423.7 234.086 423.412C234.79 423.124 235.478 422.98 236.15 422.98C237.206 422.98 238.014 423.332 238.574 424.036C239.134 424.724 239.414 425.708 239.414 426.988V435.1H237.446V427.276C237.446 425.644 236.854 424.828 235.67 424.828C235.222 424.828 234.71 424.948 234.134 425.188C233.574 425.412 232.87 425.86 232.022 426.532C232.038 426.596 232.046 426.668 232.046 426.748V426.988V435.1H230.078V427.276C230.078 425.644 229.478 424.828 228.278 424.828ZM252.954 429.868V428.428C252.954 426.764 252.514 425.444 251.633 424.468C250.77 423.476 249.529 422.98 247.913 422.98C246.298 422.98 245.049 423.476 244.169 424.468C243.305 425.444 242.874 426.764 242.874 428.428V429.868C242.874 431.564 243.313 432.9 244.193 433.876C245.074 434.852 246.313 435.34 247.913 435.34C249.529 435.34 250.77 434.852 251.633 433.876C252.514 432.9 252.954 431.564 252.954 429.868ZM250.145 425.764C250.657 426.404 250.913 427.292 250.913 428.428V429.868C250.913 431.052 250.657 431.964 250.145 432.604C249.633 433.244 248.889 433.564 247.913 433.564C246.953 433.564 246.21 433.244 245.682 432.604C245.17 431.964 244.913 431.052 244.913 429.868V428.428C244.913 427.292 245.17 426.404 245.682 425.764C246.21 425.108 246.953 424.78 247.913 424.78C248.889 424.78 249.633 425.108 250.145 425.764ZM262.77 424.948C262.05 424.948 261.346 425.076 260.658 425.332C259.986 425.588 259.266 426.076 258.498 426.796V435.1H256.53V423.22H258.402V425.14C259.218 424.34 259.962 423.78 260.634 423.46C261.322 423.14 262.034 422.98 262.77 422.98V424.948ZM271.798 435.124C272.518 434.996 273.238 434.756 273.958 434.404L273.358 432.772C272.766 433.044 272.158 433.244 271.534 433.372C270.926 433.5 270.366 433.564 269.854 433.564C268.734 433.564 267.918 433.252 267.406 432.628C266.91 432.004 266.662 431.084 266.662 429.868V429.82H273.742C273.934 428.956 274.03 428.188 274.03 427.516C274.03 426.476 273.822 425.628 273.406 424.972C273.006 424.3 272.462 423.804 271.774 423.484C271.102 423.148 270.358 422.98 269.542 422.98C268.006 422.98 266.814 423.476 265.966 424.468C265.134 425.46 264.718 426.78 264.718 428.428V429.868C264.718 431.564 265.134 432.9 265.966 433.876C266.814 434.852 268.094 435.34 269.806 435.34C270.414 435.34 271.078 435.268 271.798 435.124ZM267.43 425.62C267.91 425.012 268.614 424.708 269.542 424.708C270.246 424.708 270.846 424.924 271.342 425.356C271.854 425.772 272.11 426.428 272.11 427.324C272.11 427.58 272.086 427.852 272.038 428.14H266.662C266.71 427.052 266.966 426.212 267.43 425.62ZM278.612 432.916V433.372C278.612 434.54 278.468 435.652 278.18 436.708C277.892 437.764 277.372 438.892 276.62 440.092L275.324 439.372C275.724 438.604 276.012 437.9 276.188 437.26C276.38 436.636 276.5 435.98 276.548 435.292C276.612 434.62 276.644 433.828 276.644 432.916H278.612ZM292.584 431.956C292.584 433.044 291.784 433.588 290.184 433.588C289.608 433.588 289.04 433.524 288.48 433.396C287.92 433.268 287.296 433.068 286.608 432.796L286.08 434.428C286.8 434.748 287.496 434.98 288.168 435.124C288.856 435.268 289.544 435.34 290.232 435.34C291.272 435.34 292.096 435.188 292.704 434.884C293.328 434.58 293.776 434.164 294.048 433.636C294.336 433.092 294.48 432.492 294.48 431.836C294.48 430.924 294.232 430.18 293.736 429.604C293.24 429.028 292.464 428.612 291.408 428.356L290.088 428.02C289.384 427.844 288.904 427.612 288.648 427.324C288.392 427.036 288.264 426.692 288.264 426.292C288.264 425.252 288.96 424.732 290.352 424.732C291.296 424.732 292.352 424.996 293.52 425.524L294.144 423.868C293.488 423.548 292.84 423.324 292.2 423.196C291.576 423.052 290.96 422.98 290.352 422.98C289.408 422.98 288.64 423.14 288.048 423.46C287.456 423.78 287.024 424.204 286.752 424.732C286.48 425.244 286.344 425.804 286.344 426.412C286.344 427.244 286.584 427.964 287.064 428.572C287.544 429.164 288.272 429.58 289.248 429.82L290.568 430.156C291.336 430.348 291.864 430.58 292.152 430.852C292.44 431.124 292.584 431.492 292.584 431.956ZM304.144 434.668C303.248 435.116 302.296 435.34 301.288 435.34C300.424 435.34 299.744 435.164 299.248 434.812C298.768 434.46 298.424 433.988 298.216 433.396C298.024 432.804 297.928 432.148 297.928 431.428V424.948H295.864V423.22H297.928V419.908H299.896V423.22H303.784V424.948H299.896V431.356C299.896 432.188 300.032 432.764 300.304 433.084C300.592 433.388 301.032 433.54 301.624 433.54C301.912 433.54 302.208 433.508 302.512 433.444C302.832 433.364 303.176 433.236 303.544 433.06L304.144 434.668ZM310.861 425.332C311.549 425.076 312.253 424.948 312.973 424.948V422.98C312.237 422.98 311.525 423.14 310.837 423.46C310.165 423.78 309.421 424.34 308.605 425.14V423.22H306.733V435.1H308.701V426.796C309.469 426.076 310.189 425.588 310.861 425.332ZM324.161 434.404C323.441 434.756 322.721 434.996 322.001 435.124C321.281 435.268 320.617 435.34 320.009 435.34C318.297 435.34 317.017 434.852 316.169 433.876C315.337 432.9 314.922 431.564 314.922 429.868V428.428C314.922 426.78 315.337 425.46 316.169 424.468C317.017 423.476 318.21 422.98 319.746 422.98C320.562 422.98 321.306 423.148 321.978 423.484C322.665 423.804 323.21 424.3 323.609 424.972C324.025 425.628 324.233 426.476 324.233 427.516C324.233 428.188 324.137 428.956 323.945 429.82H316.866V429.868C316.866 431.084 317.113 432.004 317.609 432.628C318.121 433.252 318.938 433.564 320.057 433.564C320.569 433.564 321.129 433.5 321.737 433.372C322.361 433.244 322.969 433.044 323.561 432.772L324.161 434.404ZM319.746 424.708C318.818 424.708 318.114 425.012 317.634 425.62C317.17 426.212 316.914 427.052 316.866 428.14H322.241C322.289 427.852 322.314 427.58 322.314 427.324C322.314 426.428 322.057 425.772 321.546 425.356C321.049 424.924 320.45 424.708 319.746 424.708ZM332.943 431.956C332.943 433.044 332.143 433.588 330.543 433.588C329.967 433.588 329.399 433.524 328.839 433.396C328.279 433.268 327.655 433.068 326.967 432.796L326.439 434.428C327.159 434.748 327.855 434.98 328.527 435.124C329.215 435.268 329.903 435.34 330.591 435.34C331.631 435.34 332.455 435.188 333.063 434.884C333.687 434.58 334.135 434.164 334.407 433.636C334.695 433.092 334.839 432.492 334.839 431.836C334.839 430.924 334.591 430.18 334.095 429.604C333.599 429.028 332.823 428.612 331.767 428.356L330.447 428.02C329.743 427.844 329.263 427.612 329.007 427.324C328.751 427.036 328.623 426.692 328.623 426.292C328.623 425.252 329.319 424.732 330.711 424.732C331.655 424.732 332.711 424.996 333.879 425.524L334.503 423.868C333.847 423.548 333.199 423.324 332.559 423.196C331.935 423.052 331.319 422.98 330.711 422.98C329.767 422.98 328.999 423.14 328.407 423.46C327.815 423.78 327.383 424.204 327.111 424.732C326.839 425.244 326.703 425.804 326.703 426.412C326.703 427.244 326.943 427.964 327.423 428.572C327.903 429.164 328.631 429.58 329.607 429.82L330.927 430.156C331.695 430.348 332.223 430.58 332.511 430.852C332.799 431.124 332.943 431.492 332.943 431.956ZM340.879 433.588C342.479 433.588 343.279 433.044 343.279 431.956C343.279 431.492 343.135 431.124 342.847 430.852C342.559 430.58 342.031 430.348 341.263 430.156L339.943 429.82C338.967 429.58 338.239 429.164 337.759 428.572C337.279 427.964 337.039 427.244 337.039 426.412C337.039 425.804 337.175 425.244 337.447 424.732C337.719 424.204 338.151 423.78 338.743 423.46C339.335 423.14 340.103 422.98 341.047 422.98C341.655 422.98 342.271 423.052 342.895 423.196C343.535 423.324 344.183 423.548 344.839 423.868L344.215 425.524C343.047 424.996 341.991 424.732 341.047 424.732C339.655 424.732 338.959 425.252 338.959 426.292C338.959 426.692 339.087 427.036 339.343 427.324C339.599 427.612 340.079 427.844 340.783 428.02L342.103 428.356C343.159 428.612 343.935 429.028 344.431 429.604C344.927 430.18 345.175 430.924 345.175 431.836C345.175 432.492 345.031 433.092 344.743 433.636C344.471 434.164 344.023 434.58 343.399 434.884C342.791 435.188 341.967 435.34 340.927 435.34C340.239 435.34 339.551 435.268 338.863 435.124C338.191 434.98 337.495 434.748 336.775 434.428L337.303 432.796C337.991 433.068 338.615 433.268 339.175 433.396C339.735 433.524 340.303 433.588 340.879 433.588ZM355.482 417.34H353.514V432.22C353.514 433.1 353.722 433.82 354.138 434.38C354.554 434.94 355.29 435.22 356.346 435.22H356.898V433.42H356.514C356.098 433.42 355.818 433.316 355.674 433.108C355.546 432.884 355.482 432.556 355.482 432.124V417.34ZM368.482 434.404C367.762 434.756 367.042 434.996 366.322 435.124C365.602 435.268 364.938 435.34 364.33 435.34C362.618 435.34 361.338 434.852 360.49 433.876C359.658 432.9 359.242 431.564 359.242 429.868V428.428C359.242 426.78 359.658 425.46 360.49 424.468C361.338 423.476 362.53 422.98 364.066 422.98C364.882 422.98 365.626 423.148 366.298 423.484C366.986 423.804 367.53 424.3 367.93 424.972C368.346 425.628 368.554 426.476 368.554 427.516C368.554 428.188 368.458 428.956 368.266 429.82H361.186V429.868C361.186 431.084 361.434 432.004 361.93 432.628C362.442 433.252 363.258 433.564 364.378 433.564C364.89 433.564 365.45 433.5 366.058 433.372C366.682 433.244 367.29 433.044 367.882 432.772L368.482 434.404ZM364.066 424.708C363.138 424.708 362.434 425.012 361.954 425.62C361.49 426.212 361.234 427.052 361.186 428.14H366.562C366.61 427.852 366.634 427.58 366.634 427.324C366.634 426.428 366.378 425.772 365.866 425.356C365.37 424.924 364.77 424.708 364.066 424.708ZM377.264 431.956C377.264 433.044 376.464 433.588 374.864 433.588C374.288 433.588 373.72 433.524 373.16 433.396C372.6 433.268 371.976 433.068 371.288 432.796L370.76 434.428C371.48 434.748 372.176 434.98 372.848 435.124C373.536 435.268 374.224 435.34 374.912 435.34C375.952 435.34 376.776 435.188 377.384 434.884C378.008 434.58 378.456 434.164 378.728 433.636C379.016 433.092 379.16 432.492 379.16 431.836C379.16 430.924 378.912 430.18 378.416 429.604C377.92 429.028 377.144 428.612 376.088 428.356L374.768 428.02C374.064 427.844 373.584 427.612 373.328 427.324C373.072 427.036 372.944 426.692 372.944 426.292C372.944 425.252 373.64 424.732 375.032 424.732C375.976 424.732 377.032 424.996 378.2 425.524L378.824 423.868C378.168 423.548 377.52 423.324 376.88 423.196C376.256 423.052 375.64 422.98 375.032 422.98C374.088 422.98 373.32 423.14 372.728 423.46C372.136 423.78 371.704 424.204 371.432 424.732C371.16 425.244 371.024 425.804 371.024 426.412C371.024 427.244 371.264 427.964 371.744 428.572C372.224 429.164 372.952 429.58 373.928 429.82L375.248 430.156C376.016 430.348 376.544 430.58 376.832 430.852C377.12 431.124 377.264 431.492 377.264 431.956ZM385.199 433.588C386.799 433.588 387.599 433.044 387.599 431.956C387.599 431.492 387.456 431.124 387.168 430.852C386.88 430.58 386.352 430.348 385.583 430.156L384.263 429.82C383.287 429.58 382.56 429.164 382.079 428.572C381.599 427.964 381.359 427.244 381.359 426.412C381.359 425.804 381.495 425.244 381.767 424.732C382.039 424.204 382.471 423.78 383.064 423.46C383.656 423.14 384.423 422.98 385.367 422.98C385.975 422.98 386.592 423.052 387.216 423.196C387.856 423.324 388.504 423.548 389.16 423.868L388.535 425.524C387.367 424.996 386.311 424.732 385.367 424.732C383.975 424.732 383.28 425.252 383.28 426.292C383.28 426.692 383.408 427.036 383.664 427.324C383.92 427.612 384.399 427.844 385.103 428.02L386.423 428.356C387.479 428.612 388.255 429.028 388.751 429.604C389.247 430.18 389.496 430.924 389.496 431.836C389.496 432.492 389.352 433.092 389.064 433.636C388.792 434.164 388.344 434.58 387.72 434.884C387.112 435.188 386.288 435.34 385.247 435.34C384.56 435.34 383.871 435.268 383.184 435.124C382.512 434.98 381.815 434.748 381.095 434.428L381.624 432.796C382.311 433.068 382.936 433.268 383.496 433.396C384.056 433.524 384.624 433.588 385.199 433.588ZM391.719 435.1H393.927V432.916H391.719V435.1Z" fill="white"/>
</svg>
